<mxfile host="www.draw.io" modified="2020-05-27T01:47:40.081Z" agent="5.0 (Macintosh; Intel Mac OS X 10_13_6) AppleWebKit/537.36 (KHTML, like Gecko) Chrome/80.0.3987.149 Safari/537.36" etag="s4yG5YcBmLr-p3QyV9OD" version="13.1.3" type="github">
  <diagram id="Wre0eN5tI4liZRQW1z8d" name="第 1 页">
    <mxGraphModel dx="885" dy="562" grid="1" gridSize="10" guides="1" tooltips="1" connect="1" arrows="1" fold="1" page="1" pageScale="1" pageWidth="827" pageHeight="1169" math="0" shadow="0">
      <root>
        <mxCell id="0" />
        <mxCell id="1" parent="0" />
        <mxCell id="_SW3OOuH0tPQACnML6UR-1" value="" style="ellipse;whiteSpace=wrap;html=1;aspect=fixed;" vertex="1" parent="1">
          <mxGeometry x="140" y="100" width="310" height="310" as="geometry" />
        </mxCell>
        <mxCell id="_SW3OOuH0tPQACnML6UR-2" value="" style="ellipse;whiteSpace=wrap;html=1;aspect=fixed;" vertex="1" parent="1">
          <mxGeometry x="255" y="200" width="80" height="80" as="geometry" />
        </mxCell>
        <mxCell id="_SW3OOuH0tPQACnML6UR-3" value="" style="ellipse;whiteSpace=wrap;html=1;aspect=fixed;" vertex="1" parent="1">
          <mxGeometry x="202.5" y="160" width="185" height="185" as="geometry" />
        </mxCell>
        <mxCell id="_SW3OOuH0tPQACnML6UR-4" value="" style="ellipse;whiteSpace=wrap;html=1;aspect=fixed;" vertex="1" parent="1">
          <mxGeometry x="251" y="210" width="80" height="80" as="geometry" />
        </mxCell>
        <mxCell id="_SW3OOuH0tPQACnML6UR-5" value="内核" style="ellipse;whiteSpace=wrap;html=1;aspect=fixed;" vertex="1" parent="1">
          <mxGeometry x="266" y="225" width="50" height="50" as="geometry" />
        </mxCell>
        <mxCell id="_SW3OOuH0tPQACnML6UR-9" style="rounded=0;orthogonalLoop=1;jettySize=auto;html=1;entryX=0;entryY=0;entryDx=0;entryDy=0;" edge="1" parent="1" source="_SW3OOuH0tPQACnML6UR-6" target="_SW3OOuH0tPQACnML6UR-8">
          <mxGeometry relative="1" as="geometry" />
        </mxCell>
        <mxCell id="_SW3OOuH0tPQACnML6UR-10" value="1系统调用" style="edgeLabel;html=1;align=center;verticalAlign=middle;resizable=0;points=[];" vertex="1" connectable="0" parent="_SW3OOuH0tPQACnML6UR-9">
          <mxGeometry x="-0.0225" relative="1" as="geometry">
            <mxPoint as="offset" />
          </mxGeometry>
        </mxCell>
        <mxCell id="_SW3OOuH0tPQACnML6UR-6" value="用户态" style="text;html=1;strokeColor=none;fillColor=none;align=center;verticalAlign=middle;whiteSpace=wrap;rounded=0;" vertex="1" parent="1">
          <mxGeometry x="394" y="200" width="40" height="20" as="geometry" />
        </mxCell>
        <mxCell id="_SW3OOuH0tPQACnML6UR-13" style="edgeStyle=none;rounded=0;orthogonalLoop=1;jettySize=auto;html=1;" edge="1" parent="1" source="_SW3OOuH0tPQACnML6UR-8" target="_SW3OOuH0tPQACnML6UR-5">
          <mxGeometry relative="1" as="geometry" />
        </mxCell>
        <mxCell id="_SW3OOuH0tPQACnML6UR-14" value="3 内核操作" style="edgeLabel;html=1;align=center;verticalAlign=middle;resizable=0;points=[];" vertex="1" connectable="0" parent="_SW3OOuH0tPQACnML6UR-13">
          <mxGeometry x="-0.2246" y="-1" relative="1" as="geometry">
            <mxPoint as="offset" />
          </mxGeometry>
        </mxCell>
        <mxCell id="_SW3OOuH0tPQACnML6UR-8" value="CPU" style="ellipse;whiteSpace=wrap;html=1;aspect=fixed;" vertex="1" parent="1">
          <mxGeometry x="550" y="310" width="80" height="80" as="geometry" />
        </mxCell>
        <mxCell id="_SW3OOuH0tPQACnML6UR-11" value="2.1 保存用户态指令位置" style="shape=callout;whiteSpace=wrap;html=1;perimeter=calloutPerimeter;fillColor=#dae8fc;strokeColor=#6c8ebf;" vertex="1" parent="1">
          <mxGeometry x="560" y="240" width="120" height="80" as="geometry" />
        </mxCell>
        <mxCell id="_SW3OOuH0tPQACnML6UR-12" value="2.2 加载内核指令位置" style="shape=callout;whiteSpace=wrap;html=1;perimeter=calloutPerimeter;position2=0.33;direction=south;fillColor=#dae8fc;strokeColor=#6c8ebf;" vertex="1" parent="1">
          <mxGeometry x="630" y="320" width="80" height="120" as="geometry" />
        </mxCell>
      </root>
    </mxGraphModel>
  </diagram>
</mxfile>
